<?xml version="1.0" encoding="UTF-8"?>
<svg width="30px" height="30px" viewBox="0 0 30 30" version="1.1" xmlns="http://www.w3.org/2000/svg" xmlns:xlink="http://www.w3.org/1999/xlink">
    <!-- Generator: Sketch 63 (92445) - https://sketch.com -->
    <desc>Created with Sketch.</desc>
    <g id="改版优化新" stroke="none" stroke-width="1" fill="none" fill-rule="evenodd">
        <g id="列表_筛选_选负责人_搜索3" transform="translate(-592.000000, -173.000000)">
            <g id="编组-4" transform="translate(40.000000, 152.000000)">
                <g id="搜索框">
                    <g id="icon_search_close" transform="translate(552.000000, 21.000000)">
                        <circle id="Oval-" fill="#BFBFBF" cx="15" cy="15" r="15"></circle>
                        <path d="M15,6 C15.5522847,6 16,6.44494629 16,6.99339768 L16,14 L23.0066023,14 C23.5160523,14 23.935933,14.3827202 23.9933167,14.8826674 L24,15 C24,15.5522847 23.5550537,16 23.0066023,16 L16,16 L16,23.0066023 C16,23.5552407 15.5561352,24 15,24 C14.4477153,24 14,23.5550537 14,23.0066023 L14,16 L6.99339768,16 C6.44475929,16 6,15.5561352 6,15 C6,14.4477153 6.44494629,14 6.99339768,14 L14,14 L14,6.99339768 C14,6.48394775 14.3827202,6.06406704 14.8826674,6.00668331 L15,6 Z" id="Rectangle-" fill="#FFFFFF" transform="translate(15.000000, 15.000000) rotate(46.000000) translate(-15.000000, -15.000000) "></path>
                    </g>
                </g>
            </g>
        </g>
    </g>
</svg>