<?xml version="1.0" standalone="no"?>
<!DOCTYPE svg PUBLIC "-//W3C//DTD SVG 1.1//EN" "http://www.w3.org/Graphics/SVG/1.1/DTD/svg11.dtd" >
<!--
2013-9-30: Created.
-->
<svg>
<metadata>
Created by iconfont
</metadata>
<defs>

<font id="iconfont" horiz-adv-x="1024" >
  <font-face
    font-family="iconfont"
    font-weight="500"
    font-stretch="normal"
    units-per-em="1024"
    ascent="896"
    descent="-128"
  />
    <missing-glyph />
    
    <glyph glyph-name="minus01" unicode="&#58888;" d="M224 432h576a48 48 0 0 0 0-96h-576a48 48 0 0 0 0 96z"  horiz-adv-x="1024" />

    
    <glyph glyph-name="plus01" unicode="&#58957;" d="M836 420H548V708c0 19.8-16.2 36-36 36s-36-16.2-36-36v-288H188c-19.8 0-36-16.2-36-36s16.2-36 36-36h288v-288c0-19.8 16.2-36 36-36s36 16.2 36 36V348h288c19.8 0 36 16.2 36 36s-16.2 36-36 36z"  horiz-adv-x="1024" />

    
    <glyph glyph-name="del01" unicode="&#58904;" d="M751.2-31H273.4c-34 0-61.7 27.7-61.7 61.7v584c0 34 27.7 61.7 61.7 61.7h477.8c34 0 61.7-27.7 61.7-61.7v-584c0-34-27.7-61.7-61.7-61.7zM273.4 635.4c-11.3 0-20.6-9.2-20.6-20.6v-584c0-11.3 9.2-20.6 20.6-20.6h477.8c11.3 0 20.6 9.2 20.6 20.6v584c0 11.3-9.2 20.6-20.6 20.6H273.4zM905.3 635.4h-786c-11.4 0-20.6 9.2-20.6 20.6s9.2 20.6 20.6 20.6h786c11.4 0 20.6-9.2 20.6-20.6s-9.3-20.6-20.6-20.6zM619.4 648.2c-11.4 0-20.6 9.2-20.6 20.6 0 47.7-38.8 86.6-86.6 86.6s-86.6-38.8-86.6-86.6c0-11.4-9.2-20.6-20.6-20.6s-20.6 9.2-20.6 20.6c0 70.4 57.3 127.7 127.7 127.7S640 739.2 640 668.8c0-11.4-9.2-20.6-20.6-20.6zM415.4 122.89999999999998c-11.4 0-20.6 9.2-20.6 20.6V502c0 11.4 9.2 20.6 20.6 20.6S436 513.4 436 502v-358.5c0-11.3-9.3-20.6-20.6-20.6zM609.1 122.89999999999998c-11.4 0-20.6 9.2-20.6 20.6V502c0 11.4 9.2 20.6 20.6 20.6s20.6-9.2 20.6-20.6v-358.5c0-11.3-9.2-20.6-20.6-20.6z"  horiz-adv-x="1024" />

    
    <glyph glyph-name="edit" unicode="&#58891;" d="M352.581818 338.87676799999997c-0.517172-0.646465-1.163636-1.422222-1.292929-2.327273l-42.537374-155.927273c-2.456566-9.050505 0.129293-18.876768 6.723232-25.729293 5.042424-4.913131 11.636364-7.628283 18.747475-7.628283 2.327273 0 4.654545 0.258586 6.981818 0.905051l154.763637 42.149495c0.258586 0 0.387879-0.258586 0.517171-0.258586 1.810101 0 3.490909 0.646465 4.783839 1.939394l413.866667 413.737374c12.282828 12.282828 19.006061 29.090909 19.00606 47.321212 0 20.686869-8.791919 41.373737-24.177778 56.630303l-39.046464 39.175757c-15.256566 15.515152-35.943434 24.307071-56.630303 24.307071-18.230303 0-35.038384-6.723232-47.321212-19.00606l-413.737374-413.866667c-0.517172-0.387879-0.387879-1.034343-0.646465-1.422222M874.666667 646.464646l-41.115152-41.115151-66.585858 67.749495 40.468686 40.468687c6.464646 6.464646 18.876768 5.559596 26.117172-1.939394l39.175758-39.175758c4.137374-4.137374 6.464646-9.438384 6.464646-14.868687-0.129293-4.266667-1.680808-8.274747-4.525252-11.119192M426.149495 332.41212099999996l298.666667 298.666667 66.715151-67.749495-298.149495-298.149495-67.232323 67.232323z m-54.432323-121.147475l21.591919 79.256566 57.535353-57.535353-79.127272-21.721213z m0 0M900.913131 482.521212c-15.644444 0-28.573737-12.8-28.573737-28.573737v-385.810101c0-20.169697-16.420202-36.719192-36.719192-36.719192H182.949495C162.779798 31.418182 146.230303 47.83838400000002 146.230303 68.13737400000002v629.656565c0 20.29899 16.549495 36.719192 36.719192 36.719192h420.331313c15.773737 0 28.573737 12.8 28.573737 28.573738 0 15.773737-12.8 28.573737-28.573737 28.573737H178.682828c-49.260606 0-89.470707-40.080808-89.470707-89.470707v-638.319192c0-49.389899 40.080808-89.470707 89.470707-89.470707h661.333334c49.389899 0 89.470707 40.080808 89.470707 89.470707V454.076768c-0.129293 15.644444-12.929293 28.444444-28.573738 28.444444"  horiz-adv-x="1024" />

    
    <glyph glyph-name="see" unicode="&#58902;" d="M512.09728 38.39999999999998C302.56128 38.39999999999998 107.48928 167.03999999999996 2.78528 374.01599999999996a25.216 25.216 0 0 0 0 23.04c91.648 181.248 254.72 304.768 436.224 330.496 13.952 1.92 27.008-7.808 28.928-21.76 1.92-13.952-7.808-27.008-21.76-28.928C285.15328 654.08 139.61728 545.5360000000001 54.49728 385.536 151.64928 202.62400000000002 325.98528 89.60000000000002 512.09728 89.60000000000002s360.448 113.024 457.6 295.936c-87.68 165.12-238.208 274.304-404.864 292.992a25.4336 25.4336 0 0 0-22.528 28.288c1.536 14.08 14.336 24.192 28.288 22.528 187.776-21.12 356.224-145.408 450.816-332.288 3.712-7.296 3.712-15.872 0-23.04C916.70528 167.03999999999996 721.63328 38.39999999999998 512.09728 38.39999999999998zM512.09728 213.76c-90.752 0-164.608 77.056-164.608 171.776S421.34528 557.312 512.09728 557.312s164.608-77.056 164.608-171.776S602.84928 213.76 512.09728 213.76z m0 292.352c-62.464 0-113.408-54.144-113.408-120.576 0-66.432 50.816-120.576 113.408-120.576s113.408 54.144 113.408 120.576c0 66.56-50.944 120.576-113.408 120.576z"  horiz-adv-x="1024" />

    
    <glyph glyph-name="code" unicode="&#58882;" d="M411 824.7c13.6 0 25-11.5 25-25v-317.3c0-13.6-11.5-25-25-25H78c-13.6 0-25 11.5-25 25V799.7c0 13.6 11.5 25 25 25h333m0 50H78c-41.3 0-75-33.8-75-75v-317.3c0-41.3 33.8-75 75-75h333c41.3 0 75 33.8 75 75V799.7c0 41.3-33.8 75-75 75z m0-567.4c13.6 0 25-11.5 25-25V-35c0-13.6-11.5-25-25-25H78c-13.6 0-25 11.5-25 25V282.29999999999995c0 13.6 11.5 25 25 25h333m0 50.1H78c-41.3 0-75-33.8-75-75V-35c0-41.3 33.8-75 75-75h333c41.3 0 75 33.8 75 75V282.29999999999995c0 41.3-33.8 75.1-75 75.1zM944 824.7c13.6 0 25-11.5 25-25v-317.3c0-13.6-11.5-25-25-25H611c-13.6 0-25 11.5-25 25V799.7c0 13.6 11.5 25 25 25h333m0 50H611c-41.3 0-75-33.8-75-75v-317.3c0-41.3 33.8-75 75-75h333c41.3 0 75 33.8 75 75V799.7c0 41.3-33.8 75-75 75zM631.7 290.1c-13.8 0-25-11.3-25-25v-50c0-13.8 11.3-25 25-25 13.8 0 25 11.3 25 25v50c0.1 13.8-11.2 25-25 25z m147 0c-13.8 0-25-11.3-25-25v-147.5c0-13.8 11.3-25 25-25 13.8 0 25 11.3 25 25V265.1c0 13.8-11.3 25-25 25z m144.6 0c-13.8 0-25-11.3-25-25v-82.4c0-13.8 11.3-25 25-25 13.8 0 25 11.3 25 25v82.4c0 13.8-11.3 25-25 25z m0-198.3c-13.8 0-25-11.3-25-25v-114.3c0-13.8 11.3-25 25-25 13.8 0 25 11.3 25 25V66.79999999999995c0 13.7-11.3 25-25 25z m-291.6 31.9c-13.8 0-25-11.3-25-25v-146.3c0-13.8 11.3-25 25-25 13.8 0 25 11.3 25 25V98.70000000000005c0.1 13.7-11.2 25-25 25z m147-66.6c-13.8 0-25-11.3-25-25v-79.7c0-13.8 11.3-25 25-25s25 11.3 25 25v79.7c0 13.8-11.3 25-25 25z"  horiz-adv-x="1024" />

    
    <glyph glyph-name="yonghu" unicode="&#58949;" d="M427.4 369.4c-3.8 0-7.4 0.8-11 2.2-86.2 36.4-141.8 120.4-141.8 213.8 0 128 104.2 232 232 232s232-104.2 232-232c0-90.6-53.2-173.4-135.6-211.2-14.4-6.6-31.2-0.2-37.8 14-6.6 14.4-0.2 31.2 14.2 37.8 62.2 28.4 102.4 91 102.4 159.4 0 96.6-78.6 175-175 175s-175-78.6-175-175c0-70.6 42-133.8 107-161.2 14.4-6.2 21.2-22.8 15.2-37.4C449 375.8 438.4 369.4 427.4 369.4M657.8-42.6 657.8-42.6l-492.6 0.4c-31 0-59.2 15.4-75.6 41.2-15.8 24.8-17.6 55.4-5.2 82 43.2 92.2 156.4 247.6 429.2 251.8C794 337.8 896 171.4 932 72.4c9.4-26 5.6-54-10.4-77-16.6-23.8-44.2-38-73.8-38l-71.2 0c-15.8 0-28.6 12.8-28.6 28.6s12.8 28.6 28.6 28.6l71.2 0c11 0 21 5.2 27 13.6 3 4.4 7.6 13.4 3.6 25-37.4 103.6-132 226.6-363.8 222.8C284.8 272.2 182 154.6 136 56.8c-4.2-9-3.6-19 1.8-27.2 5.8-9.2 16.2-14.6 27.6-14.6l492.4-0.4c15.8 0 28.4-12.8 28.4-28.6C686.4-30 673.6-42.6 657.8-42.6"  horiz-adv-x="1024" />

    
    <glyph glyph-name="yonghu1" unicode="&#59173;" d="M512 400c-124.8 0-224 99.2-224 224s99.2 224 224 224 224-99.2 224-224-99.2-224-224-224z m0 384c-89.6 0-160-70.4-160-160s70.4-160 160-160 160 70.4 160 160-70.4 160-160 160zM880-80h-736C99.2-80 64-44.8 64 0c0 156.8 150.4 384 384 384h128c233.6 0 384-227.2 384-384 0-44.8-35.2-80-80-80zM448 320C256 320 128 128 128 0c0-9.6 6.4-16 16-16h736c9.6 0 16 6.4 16 16 0 128-128 320-320 320h-128z"  horiz-adv-x="1024" />

    
    <glyph glyph-name="clock" unicode="&#59233;" d="M512 832C265.6 832 64 630.4 64 384s201.6-448 448-448 448 201.6 448 448S758.4 832 512 832zM512 0C300.8 0 128 172.8 128 384S300.8 768 512 768s384-172.8 384-384S723.2 0 512 0zM694.4 246.4 544 396.8 544 672c0 19.2-12.8 32-32 32s-32-12.8-32-32l0-288c0-9.6 3.2-16 9.6-22.4l160-160c6.4-6.4 16-9.6 22.4-9.6s16 3.2 22.4 9.6C707.2 214.4 707.2 233.6 694.4 246.4z"  horiz-adv-x="1024" />

    
    <glyph glyph-name="share05" unicode="&#58919;" d="M917.333333 298.66666699999996a21.333333 21.333333 0 0 1-21.333333-21.333334v-234.666666a48.213333 48.213333 0 0 0-42.666667-42.666667H170.666667a50.346667 50.346667 0 0 0-42.666667 42.666667V725.333333a48.426667 48.426667 0 0 0 42.666667 42.666667h298.666666a21.333333 21.333333 0 0 1 0 42.666667H170.666667a92.16 92.16 0 0 1-85.333334-85.333334v-682.666666a91.946667 91.946667 0 0 1 85.333334-85.333334h682.666666a91.733333 91.733333 0 0 1 85.333334 85.333334V277.33333300000004a21.333333 21.333333 0 0 1-21.333334 21.333334zM298.666667 213.33333300000004s106.666667 128 192 170.666667a558.72 558.72 0 0 0 170.666666 42.666667v-149.333334l277.333334 256L661.333333 789.333333v-149.333333s-170.666667 0-256-85.333333c-106.666667-106.666667-106.666667-341.333333-106.666666-341.333334z m362.666666 384h42.666667V691.84L875.733333 533.333333 704 374.82666700000004v98.133333l-46.08-3.626667a597.333333 597.333333 0 0 1-186.24-46.933333 541.653333 541.653333 0 0 1-118.186667-89.173333c11.946667 66.346667 35.413333 144.64 82.133334 192C507.093333 596.0533330000001 659.84 597.333333 661.333333 597.333333z"  horiz-adv-x="1024" />

    
    <glyph glyph-name="share04" unicode="&#59333;" d="M911.6 244.39999999999998l0-209.2c0-36-30.4-66.2-66.2-66.2l-699.6-1.2c-35.8 0-65 29.2-65 65.2l1.2 699.6c0 35.8 30.4 66.2 66.2 66.2l387 0L535.2 875.8 148.2 875.8c-81.8 0-143-82.8-143-156.8l0-686c0-77.6 63-140.8 140.8-140.8l686 0c82 0 156.6 68.2 156.6 143L988.6 244.39999999999998 911.6 244.39999999999998 911.6 244.39999999999998zM730.2 835.2l288.6-289.2L730.2 257l0 165.2c0 0-286.4 31.8-453.6-206.6 0 0 52.6 454.4 453.6 454.4L730.2 835.2 730.2 835.2z"  horiz-adv-x="1024" />

    
    <glyph glyph-name="bag" unicode="&#59125;" d="M789.333333-64H234.666667c-46.933333 0-85.333333 38.4-85.333334 85.333333V554.666667c0 23.466667 19.2 42.666667 42.666667 42.666666h106.666667v42.666667h2.133333c10.666667 108.8 102.4 192 211.2 192s200.533333-83.2 211.2-192h2.133333v-42.666667h106.666667c23.466667 0 42.666667-19.2 42.666667-42.666666v-533.333334c0-46.933333-38.4-85.333333-85.333334-85.333333z m-106.666666 682.666667c0 93.866667-76.8 170.666667-170.666667 170.666666s-170.666667-76.8-170.666667-170.666666v-21.333334h341.333334v21.333334z m149.333333-362.666667V554.666667h-106.666667v-106.666667c0-12.8-8.533333-21.333333-21.333333-21.333333s-21.333333 8.533333-21.333333 21.333333v106.666667H341.333333v-106.666667c0-12.8-8.533333-21.333333-21.333333-21.333333s-21.333333 8.533333-21.333333 21.333333v106.666667H192v-533.333334c0-23.466667 19.2-42.666667 42.666667-42.666666h554.666666c23.466667 0 42.666667 19.2 42.666667 42.666666V256z"  horiz-adv-x="1024" />

    
    <glyph glyph-name="coupon" unicode="&#59342;" d="M418.569879-117.487599l-127.998434 127.998434L316.071133 36.010523c38.699526 38.699526 38.699526 101.598757 0 140.298283-18.699771 18.699771-43.699465 29.099644-70.199141 29.099644s-51.399371-10.299874-70.199141-29.099644l-25.499688-25.499688L10.574872 290.507409c-14.099827 14.099827-14.099827 36.899548 0 50.899377l543.993343 543.993344c14.099827 14.099827 36.899548 14.099827 50.899377 0L713.866266 777.001456c14.099827-14.099827 14.099827-36.899548 0-50.899377-18.699771-18.699771-29.099644-43.699465-29.099644-70.199141s10.299874-51.399371 29.099644-70.199141c38.699526-38.699526 101.598757-38.699526 140.298283 0 14.099827 14.099827 36.899548 14.099827 50.899377 0l108.398674-108.398674c14.099827-14.099827 14.099827-36.899548 0-50.899377l-543.993344-543.993343c-13.999829-13.89983-36.79955-13.89983-50.899377 0.099998z m-28.799647 130.698401l54.299335-54.299335L937.163533 452.005433l-60.199263 60.199263c-66.299189-42.899475-155.998091-35.299568-213.997381 22.799721-32.299605 32.299605-50.199386 75.299079-50.199386 121.098518 0 33.49959 9.499884 65.499199 27.399665 92.998862l-60.099265 59.999266L86.973937 316.007097l65.999192-65.999192c27.399665 17.799782 59.499272 27.399665 92.998862 27.399664 45.699441 0 88.698915-17.799782 121.098518-50.199385 57.99929-57.99929 65.499199-147.698193 22.699723-213.997382zM301.171316 353.106643c-9.199887 0-18.399775 3.499957-25.499688 10.499872-14.099827 14.099827-14.099827 36.899548 0 50.899377l205.697483 205.697483c14.099827 14.099827 36.899548 14.099827 50.899377 0 14.099827-14.099827 14.099827-36.899548 0-50.899377L326.671004 363.706513c-6.999914-6.999914-16.199802-10.59987-25.499688-10.59987zM518.368658 136.009299c-9.199887 0-18.399775 3.499957-25.499688 10.499872-14.099827 14.099827-14.099827 36.899548 0 50.899377l205.697483 205.697483c14.099827 14.099827 36.899548 14.099827 50.899377 0 14.099827-14.099827 14.099827-36.899548 0-50.899377L543.768347 146.509171c-6.999914-6.999914-16.199802-10.499872-25.399689-10.499872z"  horiz-adv-x="1024" />

    
    <glyph glyph-name="couponh" unicode="&#59343;" d="M905.033713 585.7477240000001c-14.098967 14.098967-36.897298 14.098967-50.896272 0-38.697166-38.697166-101.592559-38.697166-140.289725 0-18.69863 18.69863-29.097869 43.6968-29.097869 70.194858s10.299246 51.396236 29.097869 70.194859c14.098967 14.098967 14.098967 36.897298 0 50.896272L605.455655 885.425774c-14.098967 14.098967-36.897298 14.098967-50.896272 0l-543.960159-543.960159c-14.098967-14.098967-14.098967-36.897298 0-50.896272l114.191636-114.191636c14.098967-14.098967 36.897298-14.098967 50.896272 0 18.69863 18.69863 43.6968 29.097869 70.194859 29.097869s51.396236-10.299246 70.194859-29.097869c38.697166-38.697166 38.697166-101.592559 0-140.289725-14.098967-14.098967-14.098967-36.897298 0-50.896272l102.492493-102.492494c14.098967-14.098967 36.897298-14.098967 50.896272 0l543.960159 543.96016c14.098967 14.098967 14.098967 36.897298 0 50.896272L905.033713 585.7477240000001zM326.576081 363.663989c-6.999487-6.999487-16.198814-10.499231-25.498133-10.499231s-18.398652 3.499744-25.498132 10.499231c-14.098967 14.098967-14.098967 36.897298 0 50.896273l205.684935 205.684935c14.098967 14.098967 36.897298 14.098967 50.896272 0 14.098967-14.098967 14.098967-36.897298 0-50.896272L326.576081 363.663989z m422.869028-11.399165L543.660181 146.47989600000005c-6.999487-6.999487-16.198814-10.499231-25.498132-10.499231-9.199326 0-18.398652 3.499744-25.498133 10.499231-14.098967 14.098967-14.098967 36.897298 0 50.896273l205.684935 205.684935c14.098967 14.098967 36.897298 14.098967 50.896273 0 14.19896-13.998975 14.19896-36.797305 0.199985-50.79628z"  horiz-adv-x="1024" />

    
    <glyph glyph-name="share03" unicode="&#59014;" d="M462.9 203.60000000000002c-1.4 30.6 1 62.2 7.5 94.3C496.9 426.3 624.9 553 753.6 578.3c71.6 14 140.5 7.2 201.5-15.6h0.1v78.2c-33.4 10.2-68.6 16.4-104.9 18.3-261.8 13.5-471.3-193-461.7-455 0-1.3 0.1-2.4 0.1-3.7 0.9-19.9 17.2-35.5 37.1-35.5 21.1 0 38.1 17.6 37.1 38.6zM792.6 320.4c-7.5 0-15.2 2.5-21.6 7.6-14.7 11.9-16.9 33.4-5 48.2l188 231.7L722.5 796c-14.7 11.9-16.9 33.4-5 48.2 11.9 14.7 33.4 16.9 48.2 5l232.5-188.7c28.9-23.5 33.2-66 9.8-94.7L819.2 333.1c-6.8-8.3-16.7-12.7-26.6-12.7zM882.5-88.10000000000002h-774C48.7-88.10000000000002 0-39.39999999999998 0 20.399999999999977V547.6c0 59.8 48.7 108.5 108.5 108.5h217.3c17.7 0 32-14.3 32-32s-14.3-32-32-32H108.5c-24.6 0-44.6-20-44.6-44.6v-527.2c0-24.7 20-44.6 44.6-44.6h774c24.7 0 44.6 20 44.6 44.6V231.10000000000002c0 17.7 14.3 32 32 32s32-14.3 32-32v-210.7c-0.1-59.8-48.8-108.5-108.6-108.5z"  horiz-adv-x="1024" />

    
    <glyph glyph-name="share02" unicode="&#58937;" d="M756.736 251.59680000000003c-41.6768 0-77.824-23.4496-96.0512-57.856l-265.8304 79.1552c0.3072 3.6864 0.512 7.3728 0.512 11.1616 0 30.0032-11.1616 57.4464-29.5936 78.336l171.6224 171.6224c17.1008-11.1616 37.4784-17.7152 59.4944-17.7152 60.0064 0 108.6464 48.64 108.6464 108.6464s-48.5376 108.7488-108.544 108.7488S488.3456 685.056 488.3456 625.0496c0-23.2448 7.2704-44.7488 19.7632-62.464L333.6192 388.096c-16.7936 9.1136-36.0448 14.336-56.6272 14.336-65.4336 0-118.3744-53.0432-118.3744-118.3744 0-65.4336 53.0432-118.3744 118.3744-118.3744 47.3088 0 88.064 27.648 107.008 67.7888l264.6016-78.848c-0.4096-3.7888-0.6144-7.68-0.6144-11.6736 0-60.0064 48.64-108.6464 108.6464-108.6464 60.0064 0 108.6464 48.64 108.6464 108.6464s-48.5376 108.6464-108.544 108.6464z"  horiz-adv-x="1024" />

    
    <glyph glyph-name="share01" unicode="&#58909;" d="M242.4 313.29999999999995c0-42.7 7.1-80.7 19-118.7C308.8 332.29999999999995 434.7 432 584.2 432v-42.7c0-55.6 63.9-87 107.9-53l210.3 162.5c34.7 26.8 34.7 79.2 0 106L692.2 767.3c-44 34-107.9 2.6-107.9-53v-45c-188.9-1.3-341.9-159.8-341.9-356zM888.7 342.70000000000005c-26.6 0-48.1-21.5-48.1-48.1v-132c0-40-32.4-72.4-72.4-72.4H257.7c-40 0-72.4 32.4-72.4 72.4V542.4c0 40 32.4 72.4 72.4 72.4h49.6c26.6 0 48.1 21.5 48.1 48.1S333.9 711 307.3 711h-49.6c-93.1 0-168.5-75.5-168.5-168.5v-379.8c0-93.1 75.5-168.5 168.5-168.5h510.5c93.1 0 168.5 75.5 168.5 168.5v132c0.1 26.5-21.4 48-48 48z"  horiz-adv-x="1024" />

    
    <glyph glyph-name="clock02" unicode="&#58929;" d="M713.353846 225.230769l-171.323077 170.830769v288a30.148923 30.148923 0 0 1-30.030769 30.03077 30.148923 30.148923 0 0 1-30.030769-30.03077V383.507692c0-3.938462 0.738462-7.876923 2.215384-11.56923 1.476923-3.692308 3.692308-6.892308 6.4-9.846154L670.523077 182.39999999999998c5.907692-5.907692 13.538462-8.861538 21.169231-8.861538 7.630769 0 15.261538 2.953846 21.16923 8.861538 12.061538 12.061538 12.061538 31.015385 0.492308 42.830769zM512-126.03076899999996C230.646154-126.03076899999996 1.969231 102.89230799999996 1.969231 384 1.969231 665.107692 230.646154 894.030769 512 894.030769c281.353846 0 510.030769-228.923077 510.030769-510.030769 0-281.107692-228.676923-510.030769-510.030769-510.030769z m0 960.246154C263.876923 834.215385 61.784615 632.369231 61.784615 384S263.630769-66.21538499999997 512-66.21538499999997 962.215385 135.630769 962.215385 384 760.123077 834.215385 512 834.215385z"  horiz-adv-x="1024" />

    
    <glyph glyph-name="clock01" unicode="&#58894;" d="M1024 384C1024 666.77 794.77 896 512 896S0 666.77 0 384s229.23-512 512-512c113.316 0 221.092 36.94 309.448 104.063 10.722 8.145 12.811 23.44 4.666 34.162-8.146 10.722-23.44 12.811-34.163 4.666-79.945-60.733-177.382-94.13-279.951-94.13-255.84 0-463.238 207.4-463.238 463.239C48.762 639.8399999999999 256.16 847.238 512 847.238c255.84 0 463.238-207.399 463.238-463.238 0-94.738-28.473-185.158-80.882-261.604-7.614-11.106-4.783-26.281 6.323-33.895 11.105-7.614 26.28-4.783 33.895 6.323C992.505 179.32399999999996 1024 279.34000000000003 1024 384zM487.619 286.476c0-13.465 10.916-24.38 24.381-24.38s24.381 10.915 24.381 24.38V652.19c0 13.466-10.916 24.381-24.381 24.381s-24.381-10.915-24.381-24.38v-365.715zM481.587 424.436c-8.867 10.134-24.27 11.16-34.404 2.293-10.133-8.866-11.16-24.27-2.293-34.403l170.666-195.048c8.867-10.133 24.27-11.16 34.404-2.293 10.133 8.867 11.16 24.27 2.293 34.403L481.587 424.436z"  horiz-adv-x="1024" />

    
    <glyph glyph-name="bagh" unicode="&#62387;" d="M310.857143 640c0 100.992 90.057143 182.857143 201.142857 182.857143s201.142857-81.865143 201.142857-182.857143h36.589714A146.194286 146.194286 0 0 0 896 493.714286v-402.285715a146.285714 146.285714 0 0 0-146.267429-146.285714H274.285714A146.194286 146.194286 0 0 0 128 91.42857100000003V493.714286a146.285714 146.285714 0 0 0 146.267429 146.285714H310.857143z m54.857143 0h292.571428c0 69.467429-64.384 128-146.285714 128s-146.285714-58.532571-146.285714-128z"  horiz-adv-x="1024" />

    
    <glyph glyph-name="scan01" unicode="&#58945;" d="M170.666667 640h85.333333v-512H170.666667V640m128 0h42.666666v-512H298.666667V640m85.333333 0h128v-512H384V640m170.666667 0h42.666666v-512h-42.666666V640m128 0h85.333333v-512h-85.333333V640m128 0h42.666666v-512h-42.666666V640M85.333333 725.333333v-170.666666H0V725.333333a85.333333 85.333333 0 0 0 85.333333 85.333334h170.666667v-85.333334H85.333333m853.333334 85.333334a85.333333 85.333333 0 0 0 85.333333-85.333334v-170.666666h-85.333333V725.333333h-170.666667V810.666667h170.666667M85.333333 213.33333300000004v-170.666666h170.666667v-85.333334H85.333333a85.333333 85.333333 0 0 0-85.333333 85.333334v170.666666h85.333333m853.333334-170.666666v170.666666h85.333333v-170.666666a85.333333 85.333333 0 0 0-85.333333-85.333334h-170.666667v85.333334h170.666667z"  horiz-adv-x="1024" />

    
    <glyph glyph-name="scan" unicode="&#58991;" d="M102.4 162.133333c-10.24 0-17.066667 6.826667-17.066667 17.066667V588.8c0 10.24 6.826667 17.066667 17.066667 17.066667s17.066667-6.826667 17.066667-17.066667v-409.6c0-10.24-6.826667-17.066667-17.066667-17.066667zM204.8 230.39999999999998c-10.24 0-17.066667 6.826667-17.066667 17.066667V588.8c0 10.24 6.826667 17.066667 17.066667 17.066667s17.066667-6.826667 17.066667-17.066667v-341.333333c0-10.24-6.826667-17.066667-17.066667-17.066667zM409.6 230.39999999999998c-10.24 0-17.066667 6.826667-17.066667 17.066667V588.8c0 10.24 6.826667 17.066667 17.066667 17.066667s17.066667-6.826667 17.066667-17.066667v-341.333333c0-10.24-6.826667-17.066667-17.066667-17.066667zM512 162.133333c-10.24 0-17.066667 6.826667-17.066667 17.066667V588.8c0 10.24 6.826667 17.066667 17.066667 17.066667s17.066667-6.826667 17.066667-17.066667v-409.6c0-10.24-6.826667-17.066667-17.066667-17.066667zM614.4 230.39999999999998c-10.24 0-17.066667 6.826667-17.066667 17.066667V588.8c0 10.24 6.826667 17.066667 17.066667 17.066667s17.066667-6.826667 17.066667-17.066667v-341.333333c0-10.24-6.826667-17.066667-17.066667-17.066667zM716.8 230.39999999999998c-10.24 0-17.066667 6.826667-17.066667 17.066667V588.8c0 10.24 6.826667 17.066667 17.066667 17.066667s17.066667-6.826667 17.066667-17.066667v-341.333333c0-10.24-6.826667-17.066667-17.066667-17.066667zM819.2 230.39999999999998c-10.24 0-17.066667 6.826667-17.066667 17.066667V588.8c0 10.24 6.826667 17.066667 17.066667 17.066667s17.066667-6.826667 17.066667-17.066667v-341.333333c0-10.24-6.826667-17.066667-17.066667-17.066667zM921.6 162.133333c-10.24 0-17.066667 6.826667-17.066667 17.066667V588.8c0 10.24 6.826667 17.066667 17.066667 17.066667s17.066667-6.826667 17.066667-17.066667v-409.6c0-10.24-6.826667-17.066667-17.066667-17.066667zM204.8 162.133333c-3.413333 0-10.24 3.413333-10.24 6.826667-3.413333 3.413333-6.826667 6.826667-6.826667 10.24s3.413333 10.24 3.413334 10.24c6.826667 6.826667 17.066667 6.826667 23.893333 0 3.413333-3.413333 6.826667-6.826667 6.826667-13.653333s-3.413333-10.24-3.413334-10.24c-3.413333 0-10.24-3.413333-13.653333-3.413334zM307.2 230.39999999999998c-10.24 0-17.066667 6.826667-17.066667 17.066667V588.8c0 10.24 6.826667 17.066667 17.066667 17.066667s17.066667-6.826667 17.066667-17.066667v-341.333333c0-10.24-6.826667-17.066667-17.066667-17.066667zM307.2 162.133333c-3.413333 0-10.24 3.413333-10.24 6.826667-3.413333 3.413333-6.826667 6.826667-6.826667 10.24s3.413333 10.24 6.826667 10.24c6.826667 6.826667 17.066667 6.826667 23.893333 0 3.413333-3.413333 6.826667-6.826667 6.826667-10.24s-3.413333-10.24-3.413333-10.24c-6.826667-3.413333-13.653333-6.826667-17.066667-6.826667zM409.6 162.133333c-3.413333 0-10.24 3.413333-10.24 6.826667-3.413333 3.413333-6.826667 6.826667-6.826667 10.24s3.413333 10.24 3.413334 10.24c6.826667 6.826667 17.066667 6.826667 23.893333 0 3.413333-3.413333 6.826667-6.826667 6.826667-10.24s-3.413333-10.24-6.826667-10.24c0-3.413333-6.826667-6.826667-10.24-6.826667zM614.4 162.133333c-3.413333 0-10.24 3.413333-10.24 6.826667-3.413333 3.413333-6.826667 6.826667-6.826667 10.24s3.413333 10.24 3.413334 10.24c6.826667 6.826667 17.066667 6.826667 23.893333 0 3.413333-3.413333 6.826667-6.826667 6.826667-10.24s-3.413333-10.24-6.826667-10.24c0-3.413333-6.826667-6.826667-10.24-6.826667zM716.8 162.133333c-3.413333 0-10.24 3.413333-10.24 6.826667-3.413333 3.413333-6.826667 6.826667-6.826667 10.24s3.413333 10.24 6.826667 10.24c6.826667 6.826667 17.066667 6.826667 23.893333 0 3.413333-3.413333 6.826667-6.826667 6.826667-10.24s-3.413333-10.24-3.413333-10.24c-6.826667-3.413333-13.653333-6.826667-17.066667-6.826667zM819.2 162.133333c-3.413333 0-10.24 3.413333-10.24 6.826667-3.413333 3.413333-6.826667 6.826667-6.826667 10.24s3.413333 10.24 6.826667 10.24c6.826667 6.826667 17.066667 6.826667 23.893333 0 3.413333-3.413333 6.826667-6.826667 6.826667-13.653333s-3.413333-10.24-6.826667-10.24-10.24-3.413333-13.653333-3.413334zM34.133333 571.733333C23.893333 571.733333 17.066667 578.56 17.066667 588.8V725.333333c0 10.24 6.826667 17.066667 17.066666 17.066667h136.533334c10.24 0 17.066667-6.826667 17.066666-17.066667s-6.826667-17.066667-17.066666-17.066666H51.2V588.8c0-10.24-6.826667-17.066667-17.066667-17.066667zM170.666667 25.600000000000023H34.133333c-10.24 0-17.066667 6.826667-17.066666 17.066667v136.533333c0 10.24 6.826667 17.066667 17.066666 17.066667s17.066667-6.826667 17.066667-17.066667v-119.466667H170.666667c10.24 0 17.066667-6.826667 17.066666-17.066666s-6.826667-17.066667-17.066666-17.066667zM989.866667 571.733333c-10.24 0-17.066667 6.826667-17.066667 17.066667V708.266667H853.333333c-10.24 0-17.066667 6.826667-17.066666 17.066666s6.826667 17.066667 17.066666 17.066667h136.533334c10.24 0 17.066667-6.826667 17.066666-17.066667v-136.533333c0-10.24-6.826667-17.066667-17.066666-17.066667zM989.866667 25.600000000000023h-136.533334c-10.24 0-17.066667 6.826667-17.066666 17.066667s6.826667 17.066667 17.066666 17.066666h119.466667V179.20000000000005c0 10.24 6.826667 17.066667 17.066667 17.066667s17.066667-6.826667 17.066666-17.066667v-136.533333c0-10.24-6.826667-17.066667-17.066666-17.066667z"  horiz-adv-x="1024" />

    
    <glyph glyph-name="phone" unicode="&#59129;" d="M912 152.20000000000005c0-10.3-1.9-23.6-5.7-40-3.8-16.5-7.8-29.4-11.9-38.9-8-19-31.1-39-69.4-60.2-35.5-19.3-70.7-28.9-105.7-28.9-10.3 0-20.4 0.6-30.1 2.1-9.8 1.3-20.8 3.7-32.6 7.1-11.9 3.4-20.8 6.2-26.7 8.2-5.8 2.1-16.4 6.1-31.6 11.6-15.1 5.7-24.4 9.1-27.8 10.3-37.1 13.3-70.3 28.9-99.4 47.2-48.2 29.8-98.1 70.9-150 122.7-51.8 51.8-92.8 102-122.7 150-18.2 29.1-34 62.3-47.2 99.4-1.2 3.4-4.5 12.7-10.3 27.8s-9.6 25.7-11.6 31.6c-2.1 5.8-4.7 14.8-8.2 26.7-3.4 11.9-5.7 22.8-7.1 32.6s-2.1 19.9-2.1 30.1c0 34.9 9.7 70.1 28.9 105.7 21.2 38.2 41.2 61.4 60.2 69.4 9.5 4.1 22.4 8.1 38.9 11.9 16.5 3.8 29.8 5.7 40 5.7 5.2 0 9.4-0.6 11.9-1.6 6.9-2.3 16.8-16.7 30.1-43.2 4.1-7.2 9.8-17.4 17.1-30.8 7.2-13.3 13.9-25.3 19.9-36.1 6.2-10.8 11.9-20.9 17.5-30.4 1.2-1.5 4.4-6.3 10-14.2 5.5-8 9.6-14.7 12.1-20.3 2.6-5.5 3.9-10.9 3.9-16.3 0-7.6-5.4-17.1-16.3-28.4-10.8-11.3-22.6-21.8-35.3-31.4-12.7-9.5-24.4-19.5-35.3-30.1-10.8-10.6-16.3-19.3-16.3-26.1 0-3.4 0.9-7.7 2.9-12.8 1.9-5.1 3.4-9 4.7-11.6 1.3-2.6 3.9-7.2 8-13.6 3.9-6.5 6.2-10.1 6.6-10.8 28.7-51.9 61.7-96.4 98.8-133.5 37.1-37.1 81.6-70.1 133.5-98.8 0.7-0.3 4.2-2.5 10.8-6.6 6.5-3.9 11-6.6 13.6-8 2.6-1.3 6.6-3 11.6-4.7 5.1-1.9 9.4-2.9 12.8-2.9 6.9 0 15.5 5.4 26.1 16.3 10.6 10.8 20.7 22.6 30.1 35.3 9.5 12.7 19.9 24.4 31.4 35.3 11.5 10.9 20.8 16.3 28.4 16.3 5.2 0 10.8-1.3 16.3-3.9s12.1-6.7 20.3-12.1c8-5.5 12.7-8.8 14.2-10 9.5-5.7 19.7-11.6 30.4-17.5 10.8-6.2 22.8-12.7 36.1-19.9 13.3-7.2 23.6-12.9 30.8-17.1 26.5-13.3 40.9-23.3 43.2-30.1 1.6-3.2 2.2-7.3 2.2-12.5z"  horiz-adv-x="1024" />

    
    <glyph glyph-name="phone02" unicode="&#59049;" d="M511.484254 895.933485C227.987504 895.933485-0.001023 668.600897-0.001023 385.885953c0-282.71392 227.987504-512.917906 511.485277-512.917906 283.461957 0 511.48016 230.203986 511.48016 512.917906C1022.964414 668.600897 794.94621 895.933485 511.484254 895.933485zM762.853281 123.65043700000001l-57.003272-43.768853c-54.072523-16.044418-187.064466-42.271756-352.206644 190.872189-187.063443 252.120135-112.512517 394.946051-84.758406 419.698804l59.904345 42.270732 24.854061-7.306406 100.833523-145.69629-2.901073-23.320125-58.471716-40.803311c-26.28669-21.851681-8.772804-49.541323 10.237155-101.988836 17.543561-30.625508 57.003272-91.816149 83.290985-115.137297 45.297672-37.896098 65.777099-62.684668 96.468099-45.201481l55.505152 39.333844 21.977547-2.871397 105.142665-141.357472L762.853281 123.65043700000001z"  horiz-adv-x="1025" />

    
    <glyph glyph-name="phone01" unicode="&#58984;" d="M356.256221 572.949335c0 0-3.274508-62.317977-90.765264-109.389028 0 0 119.212551-234.024983 331.339263-321.515739 0 0 84.216249 94.039772 109.389028 87.490756l250.49985-109.389028c0 0 18.623763-103.863296-159.632257-172.832617-178.256021-68.866993-355.488758 67.843709-542.44269 283.244929S34.740482 653.891076 85.08604 763.2801039999999c50.345558 109.389028 161.883482 72.141501 161.883482 72.141501L356.256221 572.949335 356.256221 572.949335zM356.256221 572.949335"  horiz-adv-x="1024" />

    
    <glyph glyph-name="arr-o-t01" unicode="&#58880;" d="M65.582671 160.791335l446.417329 446.41733 446.417329-446.41733z"  horiz-adv-x="1024" />

    
    <glyph glyph-name="arr-o-d01" unicode="&#58881;" d="M65.582671 607.208665l446.417329-446.41733 446.417329 446.41733z"  horiz-adv-x="1024" />

    
    <glyph glyph-name="mine" unicode="&#58905;" d="M924.567 507.793c-20.303 69.967-60.868 133.705-47.197 212.209 5.467 31.379-11.436 59.008-49.88 56.701-33.612-2.049-41.76-23.65-51.695-56.413-83.553-275.63-309.879-422.11-526.055-598.56-9.878 36.282-13.756 49.232-16.9 62.354-99.326 414.525 8.941 537.387 426.005 483.513 23.664-3.057 52.734-11.969 62.541 18.256 14.247 43.924-26.433 57.221-51.941 77.985C321.626 849.583 70.54 668.435 106.894 343.89099999999996c12.53-111.814 19.294-218.928 1.571-328.696 104.158-12.141 206.268-30.311 309.431-53.499 326.086-73.341 599.107 227.668 506.671 546.097zM758.462 145.20899999999995c-111.368-116.862-242.681-126.813-404.303-73.197C514.281 224.865 671.65 360.504 814.656 550.736c55.864-165.863 50.615-293.454-56.194-405.527z"  horiz-adv-x="1024" />

    
    <glyph glyph-name="close05" unicode="&#59084;" d="M129.93584 770.731972l0-767.434623 762.832815 0L892.768655 770.731972 129.93584 770.731972zM795.267017 131.55138399999998l-28.454052-28.450982L511.356852 358.55549099999996 255.900739 103.10040200000003l-28.464285 28.464285 255.457136 255.454066L227.436454 642.473843l28.454052 28.454052 255.457136-255.456113 255.459183 255.456113 28.461215-28.464285L539.810904 387.007497 795.267017 131.55138399999998z"  horiz-adv-x="1024" />

    
    <glyph glyph-name="close04" unicode="&#59092;" d="M512 832C264.64 832 64 631.424 64 384c0-247.36 200.64-448 448-448 247.488 0 448 200.64 448 448C960 631.424 759.488 832 512 832zM698.24 255.87199999999996c16.64-16.64 17.152-43.2 1.024-59.264-16-16.128-42.496-15.552-59.136 1.088L512 325.82399999999996 383.872 197.76c-16.64-16.704-43.264-17.216-59.264-1.216-16 16.064-15.488 42.624 1.28 59.328l128 128L325.76 512C308.992 528.768 308.608 555.264 324.608 571.328 340.608 587.456 367.232 586.88 383.872 570.24l128.192-128.128 128.064 128.064c16.512 16.768 43.264 17.216 59.264 1.152 16-16 15.616-42.56-1.152-59.264L570.112 384 698.24 255.87199999999996z"  horiz-adv-x="1024" />

    
    <glyph glyph-name="check06h" unicode="&#58979;" d="M510.54537 833.634604c-247.535723 0-448.16002-200.624297-448.16002-448.16002 0-247.541863 200.624297-448.161043 448.16002-448.161043 247.570515 0 448.16002 200.61918 448.16002 448.161043C958.70539 633.01133 758.08621 833.634604 510.54537 833.634604L510.54537 833.634604 510.54537 833.634604zM427.030281 167.80098299999997L226.756979 368.07428600000003l45.316092 45.316092 154.957211-154.953118 322.019111 322.018088 45.314045-45.315068L427.030281 167.80098299999997 427.030281 167.80098299999997 427.030281 167.80098299999997zM427.030281 167.80098299999997"  horiz-adv-x="1024" />

    
    <glyph glyph-name="check06" unicode="&#58980;" d="M510.543324 833.634604c-247.50707 0-448.157973-200.650903-448.157973-448.15695 0-247.517303 200.650903-448.161043 448.157973-448.161043 247.517303 0 448.162066 200.64374 448.162066 448.161043C958.70539 632.983701 758.060627 833.634604 510.543324 833.634604L510.543324 833.634604 510.543324 833.634604zM510.543324-6.6727240000000165c-216.568431 0-392.139122 175.569668-392.139122 392.150378 0 216.569454 175.571714 392.132982 392.139122 392.132982 216.573547 0 392.149355-175.563528 392.149355-392.132982C902.692678 168.897967 727.116871-6.6727240000000165 510.543324-6.6727240000000165L510.543324-6.6727240000000165 510.543324-6.6727240000000165zM510.543324-6.6727240000000165"  horiz-adv-x="1024" />

    
    <glyph glyph-name="check05h" unicode="&#58958;" d="M869.885993 831.978894L153.526629 831.978894c-49.455365 0-89.544409-40.09109-89.544409-89.544409l0-716.359364c0-49.455365 40.090067-89.544409 89.544409-89.544409L869.885993-63.469288000000006c49.453319 0 89.544409 40.090067 89.544409 89.544409L959.430402 742.434485C959.430402 791.887804 919.339312 831.978894 869.885993 831.978894zM882.864586 573.6565009999999l-414.122809-414.101319c-8.744151-8.744151-20.200064-13.116739-31.655977-13.116739s-22.910802 4.372587-31.655977 13.116739L159.203932 405.759583c-17.489326 17.489326-17.489326 45.821605 0 63.310931s45.821605 17.489326 63.310931 0l214.570937-214.549447L819.553655 636.9674319999999c17.489326 17.489326 45.821605 17.489326 63.310931 0C900.353912 619.478106 900.353912 591.145827 882.864586 573.6565009999999z"  horiz-adv-x="1024" />

    
    <glyph glyph-name="check05" unicode="&#58959;" d="M869.88497 764.820332c12.134365 0 22.385846-10.251481 22.385846-22.385846l0-716.359364c0-12.134365-10.251481-22.385846-22.385846-22.385846L153.526629 3.6892749999999523c-12.134365 0-22.385846 10.251481-22.385846 22.385846L131.140783 742.434485c0 12.134365 10.251481 22.385846 22.385846 22.385846L869.88497 764.820332M869.88497 831.978894L153.526629 831.978894c-49.249681 0-89.544409-40.294728-89.544409-89.544409l0-716.359364c0-49.249681 40.294728-89.544409 89.544409-89.544409l716.358341 0c49.248657 0 89.544409 40.295751 89.544409 89.544409L959.429379 742.434485C959.430402 791.684166 919.133627 831.978894 869.88497 831.978894L869.88497 831.978894z"  horiz-adv-x="1024" />

    
    <glyph glyph-name="user03" unicode="&#58970;" d="M959.99104 288.00192000000004l-288.00448-288.00448-96.00832 96.00832-63.99872-63.99872 160.00704-160.00704 352.0032 352.0032zM448.00128 128.01536l319.9936 0 0 115.115778c-67.214016 39.197936-156.300234 66.108118-255.99488 74.258995l0 52.775904c70.49075 39.730405 127.99744 138.769705 127.99744 237.829483 0 159.064979 0 288.00448-191.99616 288.00448s-191.99616-128.939501-191.99616-288.00448c0-99.059779 57.50669-198.099078 127.99744-237.829483l0-52.775904c-217.104138-17.755805-383.99232-124.413512-383.99232-253.373493l447.99104 0 0 63.99872z"  horiz-adv-x="1025" />

    
    <glyph glyph-name="starh" unicode="&#59027;" d="M546.133333 76.79999999999995L225.122987-91.96202700000003 286.43328 265.48224000000005 26.7264 518.628693 385.631573 570.784427 546.133333 896 706.635093 570.784427 1065.540267 518.628693 805.833387 265.48224000000005 867.14368-91.96202700000003Z"  horiz-adv-x="1093" />

    
    <glyph glyph-name="star" unicode="&#58943;" d="M514.56 757.76l112.64-225.28c7.68-15.36 20.48-25.6 38.4-28.16l248.32-38.4-179.2-174.08c-12.8-12.8-17.92-28.16-15.36-46.08l43.52-253.44L537.6 112.63999999999999c-7.68 5.12-15.36 5.12-23.04 5.12-7.68 0-17.92-2.56-25.6-5.12l-222.72-122.88 46.08 245.76c2.56 17.92-2.56 33.28-15.36 46.08l-189.44 181.76 250.88 35.84c15.36 2.56 30.72 12.8 38.4 28.16L514.56 757.76M514.56 870.4l-161.28-317.44-353.28-51.2 266.24-256L197.12-104.96000000000004l320 174.08 314.88-163.84L770.56 256l250.88 245.76-348.16 53.76L514.56 870.4 514.56 870.4z"  horiz-adv-x="1024" />

    
    <glyph glyph-name="user02" unicode="&#58890;" d="M514.512 313.87199999999996c-142.848 0-259.064 116.216-259.064 259.064S371.664 832 514.512 832s259.064-116.216 259.064-259.064c0-142.84-116.216-259.064-259.064-259.064z m0 466.928c-114.616 0-207.864-93.248-207.864-207.856 0-114.616 93.248-207.848 207.864-207.848s207.864 93.224 207.864 207.84S629.144 780.8 514.512 780.8zM316.088 343.55999999999995a11.704 11.704 0 0 1-0.592-0.36 305.192 305.192 0 0 1 46.456-33.232l0.72 0.368a304.92 304.92 0 0 0-46.584 33.224zM666.36 310.336c0.232-0.12 0.488-0.24 0.72-0.368a307.264 307.264 0 0 1 46.456 33.232 11.52 11.52 0 0 1-0.584 0.36 305.784 305.784 0 0 0-46.592-33.224zM754.984 316a403.256 403.256 0 0 1-41.456 27.2 304.864 304.864 0 0 0-46.464-33.232 350.304 350.304 0 0 0 46.64-27.232c91.824-63.44 152.12-170.16 152.12-289.952 0-2.672-0.152-0.784-0.2-8.784H163.408c-0.056 8-0.2 6.112-0.2 8.784 0 119.8 60.304 226.128 152.112 289.56 14.776 10.2 30.344 19.544 46.64 27.44a305.616 305.616 0 0 0-46.456 33.328 399.832 399.832 0 0 1-41.456-27.16C175.776 242.49599999999998 112 125.38400000000001 112-6.47199999999998c0-2.672 0.152-6.096 0.2-8.768a421.68 421.68 0 0 1 3.776-48.776h797.064c2.192 16 3.464 32.52 3.792 48.792 0.048 2.672 0.192 5.704 0.192 8.392 0.008 131.848-63.776 249.376-162.04 322.832zM514.512 313.87199999999996c142.848 0 259.064 116.224 259.064 259.064C773.576 715.784 657.36 832 514.512 832S255.448 715.784 255.448 572.9359999999999s116.216-259.064 259.064-259.064z m0 466.928c114.632 0 207.864-93.248 207.864-207.864s-93.248-207.84-207.864-207.84-207.864 93.232-207.864 207.848c0 114.608 93.248 207.856 207.864 207.856z"  horiz-adv-x="1024" />

    
    <glyph glyph-name="close03" unicode="&#59061;" d="M810.666667 768H213.333333a85.333333 85.333333 0 0 1-85.333333-85.333333V85.33333300000004a85.333333 85.333333 0 0 1 85.333333-85.333333H810.666667a85.333333 85.333333 0 0 1 85.333333 85.333333V682.666667a85.333333 85.333333 0 0 1-85.333333 85.333333m-145.066667-597.333333L512 324.266667 358.4 170.66666699999996 298.666667 230.39999999999998l153.6 153.6L298.666667 537.6 358.4 597.333333l153.6-153.6L665.6 597.333333 725.333333 537.6 571.733333 384l153.6-153.6-59.733333-59.733333z"  horiz-adv-x="1024" />

    
    <glyph glyph-name="close02" unicode="&#59121;" d="M510.035-61.72799999999995c-60.267 0-118.742 11.808-173.8 35.095-53.17 22.489-100.917 54.679-141.915 95.679-41 40.999-73.19 88.746-95.68 141.916-23.287 55.057-35.095 113.532-35.095 173.8S75.353 503.503 98.64 558.56c22.489 53.17 54.68 100.917 95.679 141.916 40.998 40.999 88.746 73.19 141.916 95.679 55.058 23.287 113.533 35.095 173.8 35.095 60.269 0 118.743-11.808 173.8-35.094 53.169-22.49 100.916-54.68 141.916-95.68 40.999-40.998 73.19-88.746 95.679-141.915 23.287-55.057 35.094-113.532 35.094-173.8s-11.807-118.743-35.094-173.8c-22.49-53.17-54.68-100.917-95.68-141.916-40.999-41-88.746-73.19-141.915-95.68-55.057-23.286-113.531-35.094-173.8-35.094z m0 857.6c-55.507 0-109.344-10.868-160.017-32.3-48.953-20.706-92.92-50.35-130.682-88.112-37.762-37.76-67.406-81.73-88.111-130.681-21.432-50.672-32.3-104.51-32.3-160.018s10.868-109.344 32.3-160.017c20.705-48.952 50.35-92.92 88.111-130.681 37.761-37.761 81.729-67.406 130.682-88.111 50.673-21.433 104.51-32.3 160.017-32.3 55.507 0 109.346 10.868 160.017 32.3 48.953 20.705 92.92 50.35 130.681 88.11 37.762 37.762 67.406 81.73 88.112 130.682 21.433 50.673 32.3 104.51 32.3 160.017s-10.868 109.346-32.3 160.018c-20.706 48.953-50.351 92.92-88.112 130.681-37.761 37.761-81.728 67.406-130.681 88.112-50.671 21.432-104.51 32.3-160.017 32.3z m200.637-582.67c6.979-6.979 6.963-18.31-0.003-25.277-6.981-6.98-18.3-6.98-25.277-0.003L515.783 357.53 346.175 187.92200000000003c-6.979-6.979-18.31-6.963-25.276 0.003-6.981 6.981-6.98 18.3-0.003 25.277L490.503 382.80999999999995 320.896 552.419c-6.98 6.979-6.964 18.31 0.003 25.276 6.98 6.981 18.3 6.98 25.276 0.004L515.783 408.09l169.608 169.608c6.979 6.979 18.31 6.963 25.277-0.004 6.98-6.98 6.98-18.3 0.003-25.276L541.064 382.80999999999995l169.608-169.609z m-12.645-31.978c-4.954 0-9.907 1.885-13.678 5.656L515.784 355.446 347.218 186.88c-7.542-7.544-19.816-7.542-27.361 0.004a19.229 19.229 0 0 0-5.668 13.681c0 5.168 2.01 10.027 5.664 13.679L488.419 382.80999999999995 319.854 551.376c-3.653 3.652-5.662 8.512-5.66 13.686 0.003 5.17 2.014 10.026 5.663 13.675a19.227 19.227 0 0 0 13.681 5.668 19.219 19.219 0 0 0 13.679-5.664l168.566-168.566L684.35 578.74a19.207 19.207 0 0 0 13.676 5.66h0.01a19.229 19.229 0 0 0 13.676-5.663c7.544-7.545 7.545-19.818 0.003-27.36L543.147 382.80999999999995l168.567-168.566c3.653-3.653 5.662-8.513 5.66-13.686a19.233 19.233 0 0 0-5.662-13.675 19.293 19.293 0 0 0-13.685-5.66zM333.539 581.457c-4.381 0-8.5-1.707-11.598-4.803a16.295 16.295 0 0 1-4.799-11.592 16.283 16.283 0 0 1 4.796-11.6l170.65-170.651-170.65-170.65c-3.096-3.097-4.801-7.214-4.8-11.595s1.707-8.5 4.804-11.597a16.295 16.295 0 0 1 11.592-4.8h0.01a16.28 16.28 0 0 1 11.59 4.797l170.651 170.65 170.65-170.652c6.391-6.393 16.794-6.39 23.192 0.004 6.395 6.395 6.396 16.799 0.003 23.192L538.978 382.80999999999995 709.63 553.463c6.393 6.393 6.392 16.796-0.003 23.192a16.298 16.298 0 0 1-11.593 4.8h-0.008a16.28 16.28 0 0 1-11.591-4.797l-170.65-170.65-170.65 170.649a16.287 16.287 0 0 1-11.595 4.801z"  horiz-adv-x="1024" />

    
    <glyph glyph-name="check04" unicode="&#59182;" d="M0.1536 348.299264c-0.205824 0.187392-0.205824 0.49152 0.008192 0.68608l80.672768 73.590784a0.63488 0.63488 0 0 0 0.7936 0.029696l263.043072-203.0336c0.667648-0.515072 1.738752-0.498688 2.393088 0.038912l609.191936 500.133888a0.605184 0.605184 0 0 0 0.768-0.022528l74.84928-67.229696a0.454656 0.454656 0 0 0-0.002048-0.685056l-685.234176-618.19904a1.14688 1.14688 0 0 0-1.518592 0.012288L0.1536 348.299264z"  horiz-adv-x="1032" />

    
    <glyph glyph-name="close01" unicode="&#58928;" d="M512 448l384 384 64-64-384-384 384-384-64-64-384 384-384-384-64 64 384 384-384 384 64 64 384-384z"  horiz-adv-x="1024" />

    
    <glyph glyph-name="close" unicode="&#58886;" d="M512 896C228.072727 896 0 667.927273 0 384s228.072727-512 512-512 512 228.072727 512 512S795.927273 896 512 896z m228.072727-702.836364c9.309091-9.309091 9.309091-23.272727 0-32.581818-9.309091-9.309091-23.272727-9.309091-32.581818 0L512 351.418182l-190.836364-190.836364c-9.309091-9.309091-23.272727-9.309091-32.581818 0-9.309091 9.309091-9.309091 23.272727 0 32.581818l190.836364 190.836364-195.490909 190.836364c-4.654545 9.309091-4.654545 27.927273 0 32.581818 9.309091 9.309091 23.272727 9.309091 32.581818 0l190.836364-190.836364L698.181818 607.418182c9.309091 9.309091 23.272727 9.309091 32.581818 0 9.309091-9.309091 9.309091-23.272727 0-32.581818l-186.181818-190.836364 195.490909-190.836364z"  horiz-adv-x="1024" />

    
    <glyph glyph-name="user" unicode="&#58898;" d="M511.700176 323.735311c52.369315 0 103.139567-10.293968 150.911575-30.482139 46.172946-19.488581 87.648643-47.472184 123.227796-83.151279 35.679094-35.679094 63.562756-77.154792 83.151279-123.227796 12.392739-29.282842 20.987703-59.764981 25.884833-90.946711H128.524693c4.797189 31.281671 13.492094 61.663869 25.884833 90.946711 19.488581 46.172946 47.472184 87.648643 83.151278 123.227796 35.679094 35.679094 77.154792 63.562756 123.227796 83.151279 47.772009 20.188171 98.54226 30.482139 150.911576 30.482139m0 59.964865c-247.255124 0-447.737654-200.48253-447.737654-447.737654h895.475307c0 247.255124-200.48253 447.737654-447.737653 447.737654zM511.700176 771.472965c50.770252 0 98.442319-19.788405 134.321296-55.567441 35.878977-35.878977 55.567441-83.551044 55.567441-134.321296s-19.788405-98.442319-55.567441-134.321296c-35.878977-35.878977-83.551044-55.567441-134.321296-55.567441s-98.442319 19.788405-134.321296 55.567441c-35.878977 35.878977-55.567441 83.551044-55.567441 134.321296s19.788405 98.442319 55.567441 134.321296c35.878977 35.779036 83.551044 55.567441 134.321296 55.567441m0 59.964864c-138.019129 0-249.853601-111.834472-249.853602-249.853601s111.834472-249.853601 249.853602-249.853601 249.853601 111.834472 249.853601 249.853601-111.834472 249.853601-249.853601 249.853601z"  horiz-adv-x="1024" />

    
    <glyph glyph-name="check03" unicode="&#58922;" d="M894.293333 725.333333L443.733333 267.94666700000005 252.586667 459.093333 163.84 370.346667l279.893333-279.893334 525.653334 525.653334c34.133333-68.266667 54.613333-150.186667 54.613333-232.106667 0-279.893333-232.106667-512-512-512S0 104.10666700000002 0 384 232.106667 896 512 896c150.186667 0 286.72-68.266667 382.293333-170.666667z"  horiz-adv-x="1024" />

    
    <glyph glyph-name="arr-d01" unicode="&#58901;" d="M520.819774 894.003899h28.270784v-973.099416h-28.270784zM595.49692 56.63937599999997L534.955166-128l-60.541755 184.639376z"  horiz-adv-x="1024" />

    
    <glyph glyph-name="arr-r05" unicode="&#58884;" d="M357.957 728.8240000000001l-49.463-48.973 294.308-296.327-296.782-293.831 49.044-49.381 346.239 342.809z"  horiz-adv-x="1024" />

    
    <glyph glyph-name="arr-d02" unicode="&#58936;" d="M959.429379 552.7851479999999L890.590548 621.621932 511.268336 242.300744 131.944078 621.621932 63.105247 552.7851479999999 501.1857 114.70571800000005 521.348925 114.70571800000005Z"  horiz-adv-x="1024" />

    
    <glyph glyph-name="arr-l04" unicode="&#59068;" d="M294.13376 384c0 13.70112 5.23264 27.40224 15.6672 37.84704l328.704 328.69376c20.91008 20.91008 54.80448 20.91008 75.70432 0 20.89984-20.89984 20.89984-54.79424 0-75.70432L423.36256 384l290.83648-290.83648c20.89984-20.89984 20.89984-54.80448 0-75.70432-20.89984-20.91008-54.79424-20.91008-75.70432 0l-328.704 328.69376C299.35616 356.59776 294.13376 370.29888000000005 294.13376 384z"  horiz-adv-x="1024" />

    
    <glyph glyph-name="arr-l03" unicode="&#58885;" d="M670.676929 118.407016L403.62778 382.637979l265.320785 268.146133c11.776208 11.775184 11.734252 30.908964-0.091074 42.73429l-0.001023 0c-11.825326 11.82635-30.958082 11.867282-42.72815-2.930749L343.100242 407.559579c-3.817955-4.273327-8.205892-9.321296-8.933463-12.045337-4.470825-11.112082-2.232854-24.765033 6.710842-35.987632l286.98213-286.98213c11.875468-8.847505 31.096229-8.893554 42.922578 2.932796C682.606633 87.30362400000001 682.560584 106.52336100000002 670.676929 118.407016z"  horiz-adv-x="1024" />

    
    <glyph glyph-name="arr-r03" unicode="&#58911;" d="M341.957209-63.354678000000035c-12.893658 0-25.842575 4.425799-36.386722 13.467733-23.493064 20.10592-26.224268 55.426357-6.064113 78.891791L603.929736 384.210801l-304.423361 355.206978c-20.160155 23.465434-17.427928 58.786894 6.064113 78.891791 23.437805 20.024056 58.786894 17.373693 78.837556-6.064113l335.675132-391.620305c17.974373-20.952194 17.974373-51.875484 0-72.827679l-335.675132-391.620305C373.371686-56.71751400000005 357.691565-63.354678000000035 341.957209-63.354678000000035z"  horiz-adv-x="1024" />

    
    <glyph glyph-name="arr-t01" unicode="&#58925;" d="M910.222222 99.55555600000002c-17.066667 0-34.133333 5.688889-45.511111 17.066666L551.822222 486.4c-11.377778 5.688889-17.066667 11.377778-34.133333 11.377778-5.688889 0-22.755556-5.688889-28.444445-11.377778l-329.955555-364.088889c-22.755556-22.755556-56.888889-22.755556-79.644445-5.688889-22.755556 22.755556-22.755556 56.888889-5.688888 79.644445l329.955555 364.088889c28.444444 34.133333 73.955556 51.2 119.466667 51.2s85.333333-22.755556 119.466666-56.888889l312.888889-364.088889c22.755556-22.755556 17.066667-56.888889-5.688889-79.644445-11.377778-5.688889-28.444444-11.377778-39.822222-11.377777z"  horiz-adv-x="1024" />

    
    <glyph glyph-name="arr-l02" unicode="&#58889;" d="M626.036364 72.14545499999997L314.181818 384 626.036364 695.854545l25.6-23.272727L363.054545 384 651.636364 95.418182z"  horiz-adv-x="1024" />

    
    <glyph glyph-name="arr-l01" unicode="&#59000;" d="M127.4 398h832.8v-32H127.4zM223.5 334L63.4 382l160.1 48v-96z m0 96.1"  horiz-adv-x="1024" />

    
    <glyph glyph-name="arr-r02" unicode="&#59471;" d="M444.081633 206.367347c-5.22449 0-10.44898 2.089796-14.628572 6.269388-8.359184 8.359184-8.359184 21.420408 0 29.779592l156.734694 156.734693c8.359184 8.359184 21.420408 8.359184 29.779592 0 8.359184-8.359184 8.359184-21.420408 0-29.779591l-156.734694-156.734694c-4.702041-4.179592-9.926531-6.269388-15.15102-6.269388zM600.816327 363.102041c-5.22449 0-10.44898 2.089796-14.628572 6.269388l-156.734694 156.734693c-8.359184 8.359184-8.359184 21.420408 0 29.779592 8.359184 8.359184 21.420408 8.359184 29.779592 0l156.734694-156.734694c8.359184-8.359184 8.359184-21.420408 0-29.779591-4.702041-4.179592-9.926531-6.269388-15.15102-6.269388zM512-33.95918400000005c-230.4 0-417.959184 187.559184-417.959184 417.959184s187.559184 417.959184 417.959184 417.959184 417.959184-187.559184 417.959184-417.959184-187.559184-417.959184-417.959184-417.959184z m0 794.122449c-207.412245 0-376.163265-168.75102-376.163265-376.163265s168.75102-376.163265 376.163265-376.163265 376.163265 168.75102 376.163265 376.163265-168.75102 376.163265-376.163265 376.163265z"  horiz-adv-x="1024" />

    
    <glyph glyph-name="arr-r01" unicode="&#58935;" d="M392.533333 652.8l266.666667-270.933333-270.933333-266.666667c-8.533333-8.533333-8.533333-21.333333 0-29.866667 8.533333-8.533333 21.333333-8.533333 29.866666 0L704 366.93333299999995c8.533333 8.533333 8.533333 21.333333 0 29.866667L422.4 682.666667c-8.533333 8.533333-21.333333 8.533333-29.866667 0-8.533333-8.533333-8.533333-21.333333 0-29.866667z"  horiz-adv-x="1024" />

    


  </font>
</defs>
</svg>
